<svg width="198" height="31" viewBox="0 0 198 31" fill="none" xmlns="http://www.w3.org/2000/svg">
<path d="M0.88 17.52V11.904H12.4V17.52H0.88ZM22.5689 24C20.9849 24 19.7969 23.772 19.0049 23.316C18.2369 22.836 17.7209 22.2 17.4569 21.408C17.2169 20.592 17.0969 19.668 17.0969 18.636V13.2C17.0969 12.288 17.2169 11.436 17.4569 10.644C17.7209 9.828 18.2369 9.168 19.0049 8.664C19.7969 8.136 20.9849 7.872 22.5689 7.872H23.6849C25.4369 7.872 27.0209 7.92 28.4369 8.016C29.8769 8.112 30.8609 8.196 31.3889 8.268V1.176H38.0489V24H32.8289L31.4249 23.28C30.4169 23.448 29.3249 23.616 28.1489 23.784C26.9969 23.928 25.4969 24 23.6489 24H22.5689ZM25.4849 19.464H30.2729C30.7769 19.464 31.0889 19.404 31.2089 19.284C31.3289 19.164 31.3889 18.864 31.3889 18.384V12.66C30.7889 12.612 30.0809 12.564 29.2649 12.516C28.4489 12.444 27.5489 12.408 26.5649 12.408H25.4849C24.3329 12.408 23.7569 12.888 23.7569 13.848V18.024C23.7569 18.504 23.8889 18.864 24.1529 19.104C24.4169 19.344 24.8609 19.464 25.4849 19.464ZM46.0187 6.324C43.5947 6.324 42.3827 5.292 42.3827 3.228C42.3827 2.076 42.6827 1.284 43.2827 0.852C43.9067 0.395998 44.8187 0.167998 46.0187 0.167998C47.2907 0.167998 48.2147 0.395998 48.7907 0.852C49.3907 1.284 49.6907 2.076 49.6907 3.228C49.6907 5.292 48.4667 6.324 46.0187 6.324ZM42.7067 24V7.872H49.2587V24H42.7067ZM65.1434 30.336C62.6714 30.336 60.6554 30.288 59.0954 30.192C57.5354 30.12 56.3354 30.012 55.4954 29.868C54.6554 29.724 54.0794 29.556 53.7674 29.364C53.4554 29.196 53.2994 29.028 53.2994 28.86L55.0994 25.08C55.3634 25.152 55.9514 25.284 56.8634 25.476C57.7754 25.692 59.1074 25.8 60.8594 25.8H66.2954C66.9194 25.8 67.3634 25.692 67.6274 25.476C67.9154 25.26 68.0474 24.888 68.0234 24.36V22.884C67.2794 23.1 66.2354 23.28 64.8914 23.424C63.5714 23.544 62.0234 23.604 60.2474 23.604H59.2034C57.6194 23.604 56.4314 23.388 55.6394 22.956C54.8714 22.5 54.3554 21.876 54.0914 21.084C53.8514 20.292 53.7314 19.344 53.7314 18.24V13.2C53.7314 12.624 53.7914 12.024 53.9114 11.4C54.0554 10.776 54.3074 10.2 54.6674 9.672C55.0514 9.144 55.6034 8.712 56.3234 8.376C57.0674 8.04 58.0274 7.872 59.2034 7.872H60.2834C61.9634 7.872 63.3314 7.896 64.3874 7.944C65.4434 7.992 66.2834 8.052 66.9074 8.124C67.5554 8.196 68.0954 8.268 68.5274 8.34L69.4634 7.872H74.5754V25.008C74.5754 26.592 74.0714 27.876 73.0634 28.86C72.0554 29.844 70.3754 30.336 68.0234 30.336H65.1434ZM62.1194 19.068H66.9074C67.4594 19.068 67.7834 19.02 67.8794 18.924C67.9754 18.828 68.0234 18.516 68.0234 17.988V12.66C67.4954 12.612 66.9794 12.576 66.4754 12.552C65.9954 12.504 65.4434 12.468 64.8194 12.444C64.2194 12.42 63.4514 12.408 62.5154 12.408H62.1194C60.9674 12.408 60.3914 12.888 60.3914 13.848V17.628C60.3674 18.588 60.9434 19.068 62.1194 19.068ZM82.546 6.324C80.122 6.324 78.91 5.292 78.91 3.228C78.91 2.076 79.21 1.284 79.81 0.852C80.434 0.395998 81.346 0.167998 82.546 0.167998C83.818 0.167998 84.742 0.395998 85.318 0.852C85.918 1.284 86.218 2.076 86.218 3.228C86.218 5.292 84.994 6.324 82.546 6.324ZM79.234 24V7.872H85.786V24H79.234ZM96.8107 24C94.9867 24 93.7387 23.616 93.0667 22.848C92.3947 22.08 92.0587 20.928 92.0587 19.392V12.408H89.1067V7.872H90.6187C91.0267 7.872 91.3507 7.8 91.5907 7.656C91.8547 7.488 92.0227 7.2 92.0947 6.792L92.7787 2.94H98.6827V7.872H104.695V12.408H98.6827V17.988C98.6827 18.588 98.8267 18.984 99.1147 19.176C99.4027 19.368 99.8347 19.464 100.411 19.464H104.011L104.731 23.64C104.227 23.712 103.459 23.796 102.427 23.892C101.395 23.964 100.267 24 99.0427 24H96.8107ZM112.962 24C110.85 24 109.338 23.604 108.426 22.812C107.514 22.02 107.058 20.7 107.058 18.852C107.058 17.148 107.526 15.912 108.462 15.144C109.422 14.376 110.922 13.992 112.962 13.992H114.078C115.422 13.992 116.706 14.04 117.93 14.136C119.154 14.232 120.21 14.328 121.098 14.424V13.848C121.098 13.512 121.026 13.188 120.882 12.876C120.738 12.564 120.234 12.408 119.37 12.408H117.57C114.954 12.408 112.938 12.456 111.522 12.552C110.106 12.624 109.23 12.696 108.894 12.768L108.498 8.952C108.498 8.712 108.918 8.52 109.758 8.376C110.598 8.208 111.75 8.088 113.214 8.016C114.678 7.92 116.346 7.872 118.218 7.872H121.818C123.402 7.872 124.614 8.112 125.454 8.592C126.294 9.048 126.87 9.672 127.182 10.464C127.494 11.256 127.65 12.168 127.65 13.2V24H122.538L121.134 23.28C120.558 23.4 119.634 23.556 118.362 23.748C117.114 23.916 115.674 24 114.042 24H112.962ZM115.05 19.752H120.018C120.546 19.752 120.858 19.704 120.954 19.608C121.05 19.512 121.098 19.212 121.098 18.708V17.448H115.05C114.594 17.448 114.258 17.532 114.042 17.7C113.826 17.868 113.718 18.192 113.718 18.672C113.718 19.128 113.826 19.428 114.042 19.572C114.258 19.692 114.594 19.752 115.05 19.752ZM132.145 24V4.056L131.785 1.176H138.697V24H132.145ZM146.636 6.324C144.212 6.324 143 5.292 143 3.228C143 2.076 143.3 1.284 143.9 0.852C144.524 0.395998 145.436 0.167998 146.636 0.167998C147.908 0.167998 148.832 0.395998 149.408 0.852C150.008 1.284 150.308 2.076 150.308 3.228C150.308 5.292 149.084 6.324 146.636 6.324ZM143.324 24V7.872H149.876V24H143.324ZM153.917 24V20.76L163.025 12.444H154.637V7.872H172.997V11.112L163.205 19.464H172.601L174.401 23.604C174.401 23.7 174.041 23.796 173.321 23.892C172.601 23.964 171.389 24 169.685 24H153.917ZM182.785 24C181.201 24 179.977 23.772 179.113 23.316C178.273 22.86 177.697 22.236 177.385 21.444C177.073 20.628 176.917 19.692 176.917 18.636V13.2C176.917 12.24 177.073 11.364 177.385 10.572C177.721 9.756 178.309 9.108 179.149 8.628C179.989 8.124 181.201 7.872 182.785 7.872H190.237C192.109 7.872 193.537 8.1 194.521 8.556C195.529 8.988 196.213 9.612 196.573 10.428C196.957 11.22 197.149 12.144 197.149 13.2V17.808H190.849C188.689 17.808 187.045 17.76 185.917 17.664C184.813 17.568 184.033 17.508 183.577 17.484V18.024C183.553 18.984 184.129 19.464 185.305 19.464H186.421C188.341 19.464 190.117 19.428 191.749 19.356C193.381 19.26 194.593 19.176 195.385 19.104L197.545 22.524C197.545 22.764 197.341 22.992 196.933 23.208C196.525 23.424 195.805 23.616 194.773 23.784C193.765 23.928 192.325 24 190.453 24H182.785ZM183.577 14.352H190.489V13.848C190.489 13.368 190.441 13.032 190.345 12.84C190.273 12.648 190.021 12.528 189.589 12.48C189.157 12.432 188.425 12.408 187.393 12.408H185.305C184.153 12.408 183.577 12.888 183.577 13.848V14.352Z" fill="#49395B"/>
</svg>
